<?xml version="1.0" standalone="no"?>
<!DOCTYPE svg PUBLIC "-//W3C//DTD SVG 20010904//EN"
 "http://www.w3.org/TR/2001/REC-SVG-20010904/DTD/svg10.dtd">
<svg version="1.0" xmlns="http://www.w3.org/2000/svg"
 width="1670.000000pt" height="1670.000000pt" viewBox="0 0 1670.000000 1670.000000"
 preserveAspectRatio="xMidYMid meet">
<g transform="translate(0.000000,1670.000000) scale(0.100000,-0.100000)"
fill="#000000" stroke="none">
<path d="M12750 16414 c-89 -23 -190 -78 -265 -145 -77 -67 -104 -109 -627
-949 -254 -408 -508 -812 -514 -819 -1 -2 -93 26 -203 63 -609 201 -1274 341
-1931 405 -322 32 -522 41 -900 41 -378 0 -578 -9 -900 -41 -688 -67 -1341
-207 -1992 -426 -92 -31 -170 -55 -172 -52 -6 7 -248 391 -514 819 -523 840
-550 882 -627 949 -77 68 -177 122 -270 146 -76 19 -234 19 -310 0 -220 -56
-406 -243 -461 -465 -22 -89 -15 -271 15 -355 14 -41 184 -311 525 -835 l504
-775 -51 -29 c-874 -490 -1600 -1091 -2163 -1791 -752 -935 -1195 -1981 -1319
-3115 -9 -80 -19 -263 -22 -407 l-6 -263 7763 0 7763 0 -6 263 c-10 435 -64
823 -177 1253 -322 1229 -1064 2359 -2132 3247 -342 284 -829 615 -1195 813
-40 21 -73 42 -73 45 0 4 224 350 497 770 334 514 505 785 521 829 33 87 42
265 18 360 -55 222 -241 409 -461 465 -75 19 -241 19 -315 -1z m-7334 -4212
c255 -81 451 -280 530 -537 27 -86 27 -344 0 -430 -80 -260 -281 -461 -541
-541 -86 -27 -344 -27 -430 0 -260 80 -461 281 -541 541 -27 86 -27 344 0 430
38 124 113 250 202 339 113 112 234 176 419 220 11 3 83 3 160 1 104 -2 156
-8 201 -23z m6220 0 c210 -67 381 -213 477 -407 62 -125 72 -172 72 -345 0
-173 -10 -220 -72 -345 -97 -197 -274 -345 -488 -411 -86 -27 -344 -27 -430 0
-260 80 -461 281 -541 541 -27 86 -27 344 0 430 38 124 113 250 202 339 113
112 234 176 419 220 11 3 83 3 160 1 104 -2 156 -8 201 -23z"/>
<path d="M550 3845 l0 -3495 6778 3 c6376 3 6782 4 6862 20 414 84 713 215
1013 444 193 148 400 378 536 596 110 177 216 428 265 627 65 266 60 18 63
2788 l3 2512 -7760 0 -7760 0 0 -3495z m3632 2396 c334 -73 628 -231 863 -466
294 -295 474 -695 492 -1092 3 -68 9 -123 13 -123 4 0 10 55 13 123 30 674
508 1292 1165 1507 197 64 273 74 532 74 206 0 248 -2 337 -22 541 -118 969
-454 1202 -943 98 -204 146 -396 161 -643 5 -83 10 -850 10 -1703 l0 -1553
-570 0 -570 0 0 1504 c0 1649 3 1561 -60 1724 -82 213 -277 406 -494 487 -148
55 -338 71 -485 40 -288 -60 -535 -270 -636 -539 -57 -153 -55 -79 -55 -1712
l0 -1504 -560 0 -560 0 -2 1538 -3 1537 -32 95 c-48 139 -110 239 -217 346
-107 107 -207 170 -346 216 -92 31 -100 32 -265 32 -165 0 -173 -1 -265 -32
-139 -46 -239 -109 -346 -216 -107 -107 -169 -207 -217 -346 l-32 -95 -3
-1537 -2 -1538 -560 0 -560 0 0 1553 c0 853 5 1620 10 1703 5 84 18 197 30
252 142 698 700 1232 1406 1347 134 22 478 14 606 -14z m8185 14 c259 -34 510
-108 742 -220 264 -128 471 -274 671 -475 381 -381 625 -876 695 -1413 24
-185 18 -558 -10 -684 l-5 -23 -1850 0 c-1149 0 -1850 -4 -1850 -9 0 -19 53
-158 85 -222 130 -258 376 -504 638 -636 96 -48 284 -108 396 -127 123 -21
349 -21 472 0 112 19 300 79 396 127 116 59 251 155 352 252 l96 92 410 -211
c226 -117 423 -219 438 -227 l28 -15 -83 -110 c-46 -60 -139 -165 -208 -234
-380 -381 -876 -625 -1413 -695 -155 -20 -459 -20 -614 0 -333 44 -672 162
-962 337 -311 188 -621 498 -809 809 -80 133 -176 340 -226 486 -89 263 -126
491 -126 783 0 292 37 520 126 783 119 351 321 675 584 937 376 377 871 622
1400 694 146 19 479 20 627 1z"/>
<path d="M11875 5244 c-108 -19 -262 -67 -364 -115 -271 -126 -530 -379 -666
-648 -27 -55 -85 -202 -85 -217 0 -2 610 -4 1355 -4 745 0 1355 2 1355 4 0 15
-58 162 -85 217 -130 258 -376 504 -638 636 -96 48 -284 108 -396 127 -117 20
-364 20 -476 0z"/>
</g>
</svg>
